<mxfile host="app.diagrams.net" agent="Mozilla/5.0 (Windows NT 10.0; Win64; x64) AppleWebKit/537.36 (KHTML, like Gecko) Chrome/129.0.0.0 Safari/537.36" version="24.7.17">
  <diagram name="Halaman-1" id="0bDjbHK1bP_yE-v_qyv_">
    <mxGraphModel dx="2100" dy="1114" grid="1" gridSize="10" guides="1" tooltips="1" connect="1" arrows="1" fold="1" page="1" pageScale="1" pageWidth="827" pageHeight="1169" math="0" shadow="0">
      <root>
        <mxCell id="0" />
        <mxCell id="1" parent="0" />
        <mxCell id="GkESHOun2_4iTUB8W0Sm-47" value="Setup" style="whiteSpace=wrap;strokeWidth=2;" vertex="1" parent="1">
          <mxGeometry x="1354" y="299" width="100" height="48" as="geometry" />
        </mxCell>
        <mxCell id="GkESHOun2_4iTUB8W0Sm-48" value="Set pin modes" style="whiteSpace=wrap;strokeWidth=2;" vertex="1" parent="1">
          <mxGeometry x="1323" y="398" width="161" height="48" as="geometry" />
        </mxCell>
        <mxCell id="GkESHOun2_4iTUB8W0Sm-49" value="Initialize LEDs" style="whiteSpace=wrap;strokeWidth=2;" vertex="1" parent="1">
          <mxGeometry x="1324" y="496" width="160" height="48" as="geometry" />
        </mxCell>
        <mxCell id="GkESHOun2_4iTUB8W0Sm-50" value="Attach Interrupt" style="whiteSpace=wrap;strokeWidth=2;" vertex="1" parent="1">
          <mxGeometry x="1315" y="595" width="178" height="48" as="geometry" />
        </mxCell>
        <mxCell id="GkESHOun2_4iTUB8W0Sm-51" value="Initialize Display Pins" style="whiteSpace=wrap;strokeWidth=2;" vertex="1" parent="1">
          <mxGeometry x="1298" y="693" width="211" height="48" as="geometry" />
        </mxCell>
        <mxCell id="GkESHOun2_4iTUB8W0Sm-52" value="Loop" style="whiteSpace=wrap;strokeWidth=2;" vertex="1" parent="1">
          <mxGeometry x="1357" y="791" width="94" height="48" as="geometry" />
        </mxCell>
        <mxCell id="GkESHOun2_4iTUB8W0Sm-53" value="bolehMenyebrang?" style="rhombus;strokeWidth=2;whiteSpace=wrap;" vertex="1" parent="1">
          <mxGeometry x="628" y="890" width="180" height="180" as="geometry" />
        </mxCell>
        <mxCell id="GkESHOun2_4iTUB8W0Sm-54" value="Menyebrang" style="whiteSpace=wrap;strokeWidth=2;" vertex="1" parent="1">
          <mxGeometry x="272" y="1142" width="147" height="48" as="geometry" />
        </mxCell>
        <mxCell id="GkESHOun2_4iTUB8W0Sm-55" value="Hijau Kedip" style="whiteSpace=wrap;strokeWidth=2;" vertex="1" parent="1">
          <mxGeometry x="1009" y="1142" width="143" height="48" as="geometry" />
        </mxCell>
        <mxCell id="GkESHOun2_4iTUB8W0Sm-56" value="Turn OFF Red LED" style="whiteSpace=wrap;strokeWidth=2;" vertex="1" parent="1">
          <mxGeometry x="7" y="1241" width="187" height="48" as="geometry" />
        </mxCell>
        <mxCell id="GkESHOun2_4iTUB8W0Sm-57" value="Turn OFF Green LED" style="whiteSpace=wrap;strokeWidth=2;" vertex="1" parent="1">
          <mxGeometry x="244" y="1241" width="204" height="48" as="geometry" />
        </mxCell>
        <mxCell id="GkESHOun2_4iTUB8W0Sm-58" value="Turn ON Yellow LED" style="whiteSpace=wrap;strokeWidth=2;" vertex="1" parent="1">
          <mxGeometry x="497" y="1241" width="199" height="48" as="geometry" />
        </mxCell>
        <mxCell id="GkESHOun2_4iTUB8W0Sm-59" value="Delay 2000 ms" style="whiteSpace=wrap;strokeWidth=2;" vertex="1" parent="1">
          <mxGeometry x="516" y="1339" width="163" height="48" as="geometry" />
        </mxCell>
        <mxCell id="GkESHOun2_4iTUB8W0Sm-60" value="Countdown from 20 to 00" style="whiteSpace=wrap;strokeWidth=2;" vertex="1" parent="1">
          <mxGeometry x="476" y="1438" width="242" height="48" as="geometry" />
        </mxCell>
        <mxCell id="GkESHOun2_4iTUB8W0Sm-61" value="Turn ON Green LED" style="whiteSpace=wrap;strokeWidth=2;" vertex="1" parent="1">
          <mxGeometry x="498" y="1536" width="197" height="48" as="geometry" />
        </mxCell>
        <mxCell id="GkESHOun2_4iTUB8W0Sm-62" value="Delay 2000 ms" style="whiteSpace=wrap;strokeWidth=2;" vertex="1" parent="1">
          <mxGeometry x="516" y="1634" width="163" height="48" as="geometry" />
        </mxCell>
        <mxCell id="GkESHOun2_4iTUB8W0Sm-63" value="Turn OFF all LEDs" style="whiteSpace=wrap;strokeWidth=2;" vertex="1" parent="1">
          <mxGeometry x="1026" y="1733" width="185" height="48" as="geometry" />
        </mxCell>
        <mxCell id="GkESHOun2_4iTUB8W0Sm-64" value="Turn ON Green LED" style="whiteSpace=wrap;strokeWidth=2;" vertex="1" parent="1">
          <mxGeometry x="747" y="1241" width="197" height="48" as="geometry" />
        </mxCell>
        <mxCell id="GkESHOun2_4iTUB8W0Sm-65" value="Delay 200 ms" style="whiteSpace=wrap;strokeWidth=2;" vertex="1" parent="1">
          <mxGeometry x="993" y="1241" width="154" height="48" as="geometry" />
        </mxCell>
        <mxCell id="GkESHOun2_4iTUB8W0Sm-66" value="Turn OFF Green LED" style="whiteSpace=wrap;strokeWidth=2;" vertex="1" parent="1">
          <mxGeometry x="1198" y="1241" width="204" height="48" as="geometry" />
        </mxCell>
        <mxCell id="GkESHOun2_4iTUB8W0Sm-67" value="Delay 200 ms" style="whiteSpace=wrap;strokeWidth=2;" vertex="1" parent="1">
          <mxGeometry x="1451" y="1241" width="154" height="48" as="geometry" />
        </mxCell>
        <mxCell id="GkESHOun2_4iTUB8W0Sm-68" value="" style="curved=1;startArrow=none;endArrow=block;exitX=0.5;exitY=1.01;entryX=0.5;entryY=0.01;rounded=0;" edge="1" parent="1" target="GkESHOun2_4iTUB8W0Sm-47">
          <mxGeometry relative="1" as="geometry">
            <Array as="points" />
            <mxPoint x="1403.5" y="249" as="sourcePoint" />
          </mxGeometry>
        </mxCell>
        <mxCell id="GkESHOun2_4iTUB8W0Sm-69" value="" style="curved=1;startArrow=none;endArrow=block;exitX=0.5;exitY=1.02;entryX=0.5;entryY=0;rounded=0;" edge="1" parent="1" source="GkESHOun2_4iTUB8W0Sm-47" target="GkESHOun2_4iTUB8W0Sm-48">
          <mxGeometry relative="1" as="geometry">
            <Array as="points" />
          </mxGeometry>
        </mxCell>
        <mxCell id="GkESHOun2_4iTUB8W0Sm-70" value="" style="curved=1;startArrow=none;endArrow=block;exitX=0.5;exitY=1;entryX=0.5;entryY=0;rounded=0;" edge="1" parent="1" source="GkESHOun2_4iTUB8W0Sm-48" target="GkESHOun2_4iTUB8W0Sm-49">
          <mxGeometry relative="1" as="geometry">
            <Array as="points" />
          </mxGeometry>
        </mxCell>
        <mxCell id="GkESHOun2_4iTUB8W0Sm-71" value="" style="curved=1;startArrow=none;endArrow=block;exitX=0.5;exitY=1.01;entryX=0.5;entryY=-0.01;rounded=0;" edge="1" parent="1" source="GkESHOun2_4iTUB8W0Sm-49" target="GkESHOun2_4iTUB8W0Sm-50">
          <mxGeometry relative="1" as="geometry">
            <Array as="points" />
          </mxGeometry>
        </mxCell>
        <mxCell id="GkESHOun2_4iTUB8W0Sm-72" value="" style="curved=1;startArrow=none;endArrow=block;exitX=0.5;exitY=1;entryX=0.5;entryY=0;rounded=0;" edge="1" parent="1" source="GkESHOun2_4iTUB8W0Sm-50" target="GkESHOun2_4iTUB8W0Sm-51">
          <mxGeometry relative="1" as="geometry">
            <Array as="points" />
          </mxGeometry>
        </mxCell>
        <mxCell id="GkESHOun2_4iTUB8W0Sm-73" value="" style="curved=1;startArrow=none;endArrow=block;exitX=0.5;exitY=1.01;entryX=0.5;entryY=0.01;rounded=0;" edge="1" parent="1" source="GkESHOun2_4iTUB8W0Sm-51" target="GkESHOun2_4iTUB8W0Sm-52">
          <mxGeometry relative="1" as="geometry">
            <Array as="points" />
          </mxGeometry>
        </mxCell>
        <mxCell id="GkESHOun2_4iTUB8W0Sm-74" value="" style="curved=1;startArrow=none;endArrow=block;exitX=0;exitY=0.58;entryX=0.5;entryY=0;rounded=0;" edge="1" parent="1" source="GkESHOun2_4iTUB8W0Sm-52" target="GkESHOun2_4iTUB8W0Sm-53">
          <mxGeometry relative="1" as="geometry">
            <Array as="points">
              <mxPoint x="718" y="865" />
            </Array>
          </mxGeometry>
        </mxCell>
        <mxCell id="GkESHOun2_4iTUB8W0Sm-75" value="true" style="curved=1;startArrow=none;endArrow=block;exitX=0;exitY=0.67;entryX=0.5;entryY=0.01;rounded=0;" edge="1" parent="1" source="GkESHOun2_4iTUB8W0Sm-53" target="GkESHOun2_4iTUB8W0Sm-54">
          <mxGeometry relative="1" as="geometry">
            <Array as="points">
              <mxPoint x="345" y="1106" />
            </Array>
          </mxGeometry>
        </mxCell>
        <mxCell id="GkESHOun2_4iTUB8W0Sm-76" value="false" style="curved=1;startArrow=none;endArrow=block;exitX=1;exitY=0.67;entryX=0.5;entryY=0.01;rounded=0;" edge="1" parent="1" source="GkESHOun2_4iTUB8W0Sm-53" target="GkESHOun2_4iTUB8W0Sm-55">
          <mxGeometry relative="1" as="geometry">
            <Array as="points">
              <mxPoint x="1081" y="1106" />
            </Array>
          </mxGeometry>
        </mxCell>
        <mxCell id="GkESHOun2_4iTUB8W0Sm-77" value="" style="curved=1;startArrow=none;endArrow=block;exitX=0;exitY=0.82;entryX=0.5;entryY=0;rounded=0;" edge="1" parent="1" source="GkESHOun2_4iTUB8W0Sm-54" target="GkESHOun2_4iTUB8W0Sm-56">
          <mxGeometry relative="1" as="geometry">
            <Array as="points">
              <mxPoint x="100" y="1216" />
            </Array>
          </mxGeometry>
        </mxCell>
        <mxCell id="GkESHOun2_4iTUB8W0Sm-78" value="" style="curved=1;startArrow=none;endArrow=block;exitX=0.5;exitY=1.02;entryX=0.5;entryY=0;rounded=0;" edge="1" parent="1" source="GkESHOun2_4iTUB8W0Sm-54" target="GkESHOun2_4iTUB8W0Sm-57">
          <mxGeometry relative="1" as="geometry">
            <Array as="points" />
          </mxGeometry>
        </mxCell>
        <mxCell id="GkESHOun2_4iTUB8W0Sm-79" value="" style="curved=1;startArrow=none;endArrow=block;exitX=1;exitY=0.81;entryX=0.5;entryY=0;rounded=0;" edge="1" parent="1" source="GkESHOun2_4iTUB8W0Sm-54" target="GkESHOun2_4iTUB8W0Sm-58">
          <mxGeometry relative="1" as="geometry">
            <Array as="points">
              <mxPoint x="597" y="1216" />
            </Array>
          </mxGeometry>
        </mxCell>
        <mxCell id="GkESHOun2_4iTUB8W0Sm-80" value="" style="curved=1;startArrow=none;endArrow=block;exitX=0.5;exitY=1;entryX=0.5;entryY=0;rounded=0;" edge="1" parent="1" source="GkESHOun2_4iTUB8W0Sm-58" target="GkESHOun2_4iTUB8W0Sm-59">
          <mxGeometry relative="1" as="geometry">
            <Array as="points" />
          </mxGeometry>
        </mxCell>
        <mxCell id="GkESHOun2_4iTUB8W0Sm-81" value="" style="curved=1;startArrow=none;endArrow=block;exitX=0.5;exitY=1.01;entryX=0.5;entryY=-0.01;rounded=0;" edge="1" parent="1" source="GkESHOun2_4iTUB8W0Sm-59" target="GkESHOun2_4iTUB8W0Sm-60">
          <mxGeometry relative="1" as="geometry">
            <Array as="points" />
          </mxGeometry>
        </mxCell>
        <mxCell id="GkESHOun2_4iTUB8W0Sm-82" value="" style="curved=1;startArrow=none;endArrow=block;exitX=0.5;exitY=1;entryX=0.5;entryY=0;rounded=0;" edge="1" parent="1" source="GkESHOun2_4iTUB8W0Sm-60" target="GkESHOun2_4iTUB8W0Sm-61">
          <mxGeometry relative="1" as="geometry">
            <Array as="points" />
          </mxGeometry>
        </mxCell>
        <mxCell id="GkESHOun2_4iTUB8W0Sm-83" value="" style="curved=1;startArrow=none;endArrow=block;exitX=0.5;exitY=1.01;entryX=0.5;entryY=0.01;rounded=0;" edge="1" parent="1" source="GkESHOun2_4iTUB8W0Sm-61" target="GkESHOun2_4iTUB8W0Sm-62">
          <mxGeometry relative="1" as="geometry">
            <Array as="points" />
          </mxGeometry>
        </mxCell>
        <mxCell id="GkESHOun2_4iTUB8W0Sm-84" value="" style="curved=1;startArrow=none;endArrow=block;exitX=0.5;exitY=1.02;entryX=0;entryY=0.32;rounded=0;" edge="1" parent="1" source="GkESHOun2_4iTUB8W0Sm-62" target="GkESHOun2_4iTUB8W0Sm-63">
          <mxGeometry relative="1" as="geometry">
            <Array as="points">
              <mxPoint x="597" y="1708" />
            </Array>
          </mxGeometry>
        </mxCell>
        <mxCell id="GkESHOun2_4iTUB8W0Sm-85" value="" style="curved=1;startArrow=none;endArrow=block;exitX=0;exitY=0.82;entryX=0.5;entryY=0;rounded=0;" edge="1" parent="1" source="GkESHOun2_4iTUB8W0Sm-55" target="GkESHOun2_4iTUB8W0Sm-64">
          <mxGeometry relative="1" as="geometry">
            <Array as="points">
              <mxPoint x="845" y="1216" />
            </Array>
          </mxGeometry>
        </mxCell>
        <mxCell id="GkESHOun2_4iTUB8W0Sm-86" value="" style="curved=1;startArrow=none;endArrow=block;exitX=0.47;exitY=1.02;entryX=0.5;entryY=0;rounded=0;" edge="1" parent="1" source="GkESHOun2_4iTUB8W0Sm-55" target="GkESHOun2_4iTUB8W0Sm-65">
          <mxGeometry relative="1" as="geometry">
            <Array as="points">
              <mxPoint x="1071" y="1216" />
            </Array>
          </mxGeometry>
        </mxCell>
        <mxCell id="GkESHOun2_4iTUB8W0Sm-87" value="" style="curved=1;startArrow=none;endArrow=block;exitX=0.89;exitY=1.02;entryX=0.25;entryY=0;rounded=0;" edge="1" parent="1" source="GkESHOun2_4iTUB8W0Sm-55" target="GkESHOun2_4iTUB8W0Sm-66">
          <mxGeometry relative="1" as="geometry">
            <Array as="points">
              <mxPoint x="1195" y="1216" />
            </Array>
          </mxGeometry>
        </mxCell>
        <mxCell id="GkESHOun2_4iTUB8W0Sm-88" value="" style="curved=1;startArrow=none;endArrow=block;exitX=1;exitY=0.68;entryX=0.5;entryY=0;rounded=0;" edge="1" parent="1" source="GkESHOun2_4iTUB8W0Sm-55" target="GkESHOun2_4iTUB8W0Sm-67">
          <mxGeometry relative="1" as="geometry">
            <Array as="points">
              <mxPoint x="1528" y="1216" />
            </Array>
          </mxGeometry>
        </mxCell>
        <mxCell id="GkESHOun2_4iTUB8W0Sm-89" value="" style="curved=1;startArrow=none;endArrow=block;exitX=1;exitY=0.32;entryX=1;entryY=0.72;rounded=0;" edge="1" parent="1" source="GkESHOun2_4iTUB8W0Sm-63" target="GkESHOun2_4iTUB8W0Sm-52">
          <mxGeometry relative="1" as="geometry">
            <Array as="points">
              <mxPoint x="1640" y="1706" />
              <mxPoint x="1640" y="863" />
            </Array>
          </mxGeometry>
        </mxCell>
        <mxCell id="GkESHOun2_4iTUB8W0Sm-90" value="" style="curved=1;startArrow=none;endArrow=block;exitX=0.75;exitY=0;entryX=0.5;entryY=1.02;rounded=0;" edge="1" parent="1" source="GkESHOun2_4iTUB8W0Sm-66" target="GkESHOun2_4iTUB8W0Sm-52">
          <mxGeometry relative="1" as="geometry">
            <Array as="points">
              <mxPoint x="1404" y="1216" />
            </Array>
          </mxGeometry>
        </mxCell>
        <mxCell id="GkESHOun2_4iTUB8W0Sm-92" value="" style="edgeStyle=orthogonalEdgeStyle;rounded=0;orthogonalLoop=1;jettySize=auto;html=1;" edge="1" parent="1" source="GkESHOun2_4iTUB8W0Sm-91" target="GkESHOun2_4iTUB8W0Sm-47">
          <mxGeometry relative="1" as="geometry" />
        </mxCell>
        <mxCell id="GkESHOun2_4iTUB8W0Sm-91" value="Start" style="ellipse;whiteSpace=wrap;html=1;" vertex="1" parent="1">
          <mxGeometry x="1349" y="181" width="110" height="70" as="geometry" />
        </mxCell>
      </root>
    </mxGraphModel>
  </diagram>
</mxfile>
